<svg width="195" height="70" viewBox="0 0 195 70" fill="none" xmlns="http://www.w3.org/2000/svg">
<g filter="url(#filter0_d_736_5860)">
<path d="M69.1809 18.3247C69.1809 19.4025 68.8392 20.2622 68.1559 20.891C67.3906 21.648 66.3792 22.033 65.1493 22.033C63.9603 22.033 62.9626 21.648 62.1289 20.8782C61.2953 20.1083 60.8853 19.1459 60.8853 18.0167C60.8853 16.8747 61.2953 15.9252 62.1289 15.1553C62.9626 14.3854 63.9603 14.0005 65.1493 14.0005C65.7369 14.0005 66.2972 14.1031 66.8302 14.3213C67.3632 14.5394 67.7869 14.8217 68.1149 15.181L67.3906 15.8611C66.8439 15.258 66.1059 14.95 65.1493 14.95C64.2883 14.95 63.5366 15.2323 62.9079 15.8097C62.2793 16.3743 61.9649 17.1185 61.9649 18.0296C61.9649 18.9406 62.2793 19.6848 62.9079 20.2494C63.5366 20.814 64.2883 21.1091 65.1493 21.1091C66.0649 21.1091 66.8302 20.8268 67.4452 20.2494C67.8416 19.8773 68.0739 19.3512 68.1286 18.684H65.1493V17.7473H69.1262C69.1536 17.9526 69.1809 18.1451 69.1809 18.3247Z" fill="white" stroke="white" stroke-width="0.256629" stroke-miterlimit="10"/>
<path d="M75.481 15.1168H71.7499V17.5547H75.112V18.4786H71.7499V20.9166H75.481V21.8661H70.6976V14.1672H75.481V15.1168Z" fill="white" stroke="white" stroke-width="0.256629" stroke-miterlimit="10"/>
<path d="M79.9224 21.8661H78.8701V15.1168H76.5741V14.1672H82.2047V15.1168H79.9087V21.8661H79.9224Z" fill="white" stroke="white" stroke-width="0.256629" stroke-miterlimit="10"/>
<path d="M86.2908 21.8661V14.1672H87.3431V21.8661H86.2908Z" fill="white" stroke="white" stroke-width="0.256629" stroke-miterlimit="10"/>
<path d="M92.0181 21.8661H90.9657V15.1168H88.6697V14.1672H94.3004V15.1168H92.0044V21.8661H92.0181Z" fill="white" stroke="white" stroke-width="0.256629" stroke-miterlimit="10"/>
<path d="M104.973 20.8648C104.167 21.6476 103.169 22.0325 101.967 22.0325C100.764 22.0325 99.7664 21.6476 98.9601 20.8648C98.1537 20.0821 97.7574 19.1326 97.7574 18.0163C97.7574 16.8999 98.1537 15.9376 98.9601 15.1677C99.7664 14.3849 100.764 14 101.967 14C103.156 14 104.153 14.3849 104.973 15.1677C105.78 15.9504 106.19 16.8999 106.19 18.0163C106.176 19.1454 105.78 20.095 104.973 20.8648ZM99.7391 20.2233C100.34 20.8007 101.092 21.083 101.967 21.083C102.841 21.083 103.593 20.8007 104.194 20.2233C104.796 19.6459 105.11 18.9145 105.11 18.0163C105.11 17.118 104.809 16.3867 104.194 15.8092C103.593 15.2318 102.841 14.9367 101.967 14.9367C101.092 14.9367 100.34 15.219 99.7391 15.7964C99.1377 16.3867 98.8234 17.118 98.8234 18.0163C98.8234 18.9145 99.1377 19.6459 99.7391 20.2233Z" fill="white" stroke="white" stroke-width="0.256629" stroke-miterlimit="10"/>
<path d="M107.666 21.8661V14.1672H108.951L112.942 20.1595H112.983L112.942 18.6711V14.1672H113.994V21.8661H112.901L108.732 15.5915H108.691L108.732 17.08V21.8661H107.666Z" fill="white" stroke="white" stroke-width="0.256629" stroke-miterlimit="10"/>
<path d="M97.498 33.0928C94.2863 33.0928 91.6623 35.3896 91.6623 38.5462C91.6623 41.6899 94.2863 43.9996 97.498 43.9996C100.71 43.9996 103.334 41.6899 103.334 38.5462C103.334 35.3896 100.71 33.0928 97.498 33.0928ZM97.498 41.8567C95.735 41.8567 94.218 40.4966 94.218 38.5462C94.218 36.583 95.735 35.2357 97.498 35.2357C99.261 35.2357 100.778 36.583 100.778 38.5462C100.778 40.4966 99.2473 41.8567 97.498 41.8567ZM84.7607 33.0928C81.549 33.0928 78.925 35.3896 78.925 38.5462C78.925 41.6899 81.549 43.9996 84.7607 43.9996C87.9723 43.9996 90.5963 41.6899 90.5963 38.5462C90.5963 35.3896 87.9723 33.0928 84.7607 33.0928ZM84.7607 41.8567C82.9977 41.8567 81.4807 40.4966 81.4807 38.5462C81.4807 36.583 82.9977 35.2357 84.7607 35.2357C86.5237 35.2357 88.0407 36.583 88.0407 38.5462C88.0407 40.4966 86.5237 41.8567 84.7607 41.8567ZM69.6181 34.7737V37.0834H75.522C75.3444 38.3794 74.8797 39.3417 74.1827 39.9961C73.3217 40.8045 71.9824 41.6899 69.6317 41.6899C65.9964 41.6899 63.1537 38.944 63.1537 35.5308C63.1537 32.1176 65.9964 29.3717 69.6317 29.3717C71.5861 29.3717 73.0211 30.0902 74.0734 31.0269L75.809 29.3973C74.333 28.0757 72.3787 27.062 69.6181 27.062C64.6434 27.062 60.4614 30.8601 60.4614 35.5436C60.4614 40.2143 64.6434 44.0252 69.6181 44.0252C72.3104 44.0252 74.333 43.204 75.9184 41.6514C77.5447 40.1245 78.0504 37.9688 78.0504 36.2365C78.0504 35.6976 78.0094 35.1972 77.9137 34.7866H69.6181V34.7737ZM131.542 36.5701C131.063 35.3511 129.587 33.0928 126.567 33.0928C123.574 33.0928 121.087 35.2998 121.087 38.5462C121.087 41.6001 123.547 43.9996 126.854 43.9996C129.519 43.9996 131.063 42.4726 131.692 41.5872L129.71 40.3426C129.054 41.2536 128.152 41.8567 126.854 41.8567C125.556 41.8567 124.626 41.2921 124.039 40.2015L131.815 37.1861L131.542 36.5701ZM123.615 38.3922C123.547 36.2878 125.351 35.21 126.649 35.21C127.66 35.21 128.521 35.6848 128.808 36.3648L123.615 38.3922ZM117.301 43.6788H119.857V27.6394H117.301V43.6788ZM113.119 34.3118H113.023C112.449 33.6702 111.356 33.0928 109.962 33.0928C107.051 33.0928 104.386 35.4923 104.386 38.5719C104.386 41.6257 107.051 44.0124 109.962 44.0124C111.342 44.0124 112.449 43.435 113.023 42.7677H113.105V43.5505C113.105 45.642 111.916 46.7583 110.003 46.7583C108.445 46.7583 107.475 45.7062 107.078 44.8208L104.851 45.6933C105.493 47.1433 107.188 48.914 110.003 48.914C112.996 48.914 115.524 47.2588 115.524 43.2297V33.4264H113.105V34.3118H113.119ZM110.181 41.8567C108.418 41.8567 106.942 40.4709 106.942 38.5719C106.942 36.6471 108.418 35.2485 110.181 35.2485C111.916 35.2485 113.283 36.66 113.283 38.5719C113.297 40.4709 111.93 41.8567 110.181 41.8567ZM143.513 27.6394H137.405V43.6788H139.96V37.5967H143.527C146.356 37.5967 149.13 35.6719 149.13 32.618C149.13 29.5642 146.329 27.6394 143.513 27.6394ZM143.568 35.364H139.947V29.8593H143.568C145.481 29.8593 146.561 31.3477 146.561 32.6052C146.561 33.8627 145.481 35.364 143.568 35.364ZM159.339 33.0671C157.494 33.0671 155.581 33.837 154.788 35.518L157.057 36.4033C157.535 35.518 158.437 35.2228 159.38 35.2228C160.706 35.2228 162.045 35.9671 162.059 37.2887V37.4555C161.594 37.2117 160.61 36.8396 159.394 36.8396C156.948 36.8396 154.474 38.0971 154.474 40.4452C154.474 42.5881 156.469 43.9739 158.711 43.9739C160.419 43.9739 161.376 43.2553 161.963 42.4085H162.045V43.6531H164.505V37.5068C164.519 34.6582 162.25 33.0671 159.339 33.0671ZM159.025 41.8567C158.191 41.8567 157.03 41.4589 157.03 40.4966C157.03 39.2648 158.478 38.79 159.736 38.79C160.856 38.79 161.389 39.021 162.059 39.3289C161.868 40.8045 160.501 41.8567 159.025 41.8567ZM173.484 33.4136L170.56 40.3683H170.478L167.444 33.4136H164.697L169.248 43.1399L166.651 48.5419H169.316L176.327 33.4136H173.484ZM150.524 43.6788H153.08V27.6394H150.524V43.6788Z" fill="white"/>
<path d="M18.6417 14.8594C18.2453 15.2571 18.013 15.873 18.013 16.6558V45.039C18.013 45.8346 18.2453 46.4505 18.6417 46.8354L18.7373 46.9252L35.6703 31.0399V30.8474V30.6549L18.7373 14.7695L18.6417 14.8594Z" fill="url(#paint0_linear_736_5860)"/>
<path d="M41.3165 36.3393L35.6721 31.0398V30.8474V30.6549L41.3165 25.3555L41.4395 25.4196L48.1225 28.9868C50.0359 30.0005 50.0359 31.6686 48.1225 32.6951L41.4395 36.2623L41.3165 36.3393Z" fill="url(#paint1_linear_736_5860)"/>
<path d="M41.4387 36.2754L35.6714 30.8477L18.6428 46.8357C19.2714 47.4644 20.3101 47.5414 21.4854 46.9127L41.4387 36.2754Z" fill="url(#paint2_linear_736_5860)"/>
<path d="M41.4382 25.4326L21.4713 14.7825C20.296 14.1537 19.2573 14.2307 18.6287 14.8595L35.6709 30.8475L41.4382 25.4326Z" fill="url(#paint3_linear_736_5860)"/>
<path opacity="0.2" d="M41.3145 36.147L21.4706 46.7329C20.3636 47.3232 19.3659 47.2847 18.7373 46.7458L18.6416 46.8356L18.7373 46.9254C19.3796 47.4643 20.3636 47.5028 21.4706 46.9126L41.4375 36.2625L41.3145 36.147Z" fill="black"/>
<path opacity="0.12" d="M18.6406 46.6558C18.2442 46.258 18.0118 45.6421 18.0118 44.8594V45.0518C18.0118 45.8474 18.2442 46.4633 18.6406 46.8482L18.7362 46.7584L18.6406 46.6558Z" fill="black"/>
<path opacity="0.12" d="M48.122 32.5157L41.3023 36.147L41.4253 36.2625L48.1083 32.6954C49.065 32.1821 49.5433 31.5149 49.5433 30.8477C49.475 31.4507 48.9966 32.0538 48.122 32.5157Z" fill="black"/>
<path opacity="0.25" d="M21.4713 14.9631L48.1214 29.1804C48.9824 29.6423 49.4744 30.2326 49.5564 30.8485C49.5564 30.1812 49.0781 29.5012 48.1214 29.0007L21.4713 14.7835C19.558 13.7698 18 14.6167 18 16.6697V16.8622C18 14.7963 19.5717 13.9494 21.4713 14.9631Z" fill="white"/>
<rect x="5" y="1" width="185" height="60" rx="8" stroke="white"/>
</g>
<defs>
<filter id="filter0_d_736_5860" x="0.5" y="0.5" width="194" height="69" filterUnits="userSpaceOnUse" color-interpolation-filters="sRGB">
<feFlood flood-opacity="0" result="BackgroundImageFix"/>
<feColorMatrix in="SourceAlpha" type="matrix" values="0 0 0 0 0 0 0 0 0 0 0 0 0 0 0 0 0 0 127 0" result="hardAlpha"/>
<feOffset dy="4"/>
<feGaussianBlur stdDeviation="2"/>
<feComposite in2="hardAlpha" operator="out"/>
<feColorMatrix type="matrix" values="0 0 0 0 0 0 0 0 0 0 0 0 0 0 0 0 0 0 0.25 0"/>
<feBlend mode="normal" in2="BackgroundImageFix" result="effect1_dropShadow_736_5860"/>
<feBlend mode="normal" in="SourceGraphic" in2="effect1_dropShadow_736_5860" result="shape"/>
</filter>
<linearGradient id="paint0_linear_736_5860" x1="34.1665" y1="16.3604" x2="12.6749" y2="39.2508" gradientUnits="userSpaceOnUse">
<stop stop-color="#00A0FF"/>
<stop offset="0.00657445" stop-color="#00A1FF"/>
<stop offset="0.2601" stop-color="#00BEFF"/>
<stop offset="0.5122" stop-color="#00D2FF"/>
<stop offset="0.7604" stop-color="#00DFFF"/>
<stop offset="1" stop-color="#00E3FF"/>
</linearGradient>
<linearGradient id="paint1_linear_736_5860" x1="50.6158" y1="30.8493" x2="17.5464" y2="30.8493" gradientUnits="userSpaceOnUse">
<stop stop-color="#FFE000"/>
<stop offset="0.4087" stop-color="#FFBD00"/>
<stop offset="0.7754" stop-color="#FFA500"/>
<stop offset="1" stop-color="#FF9C00"/>
</linearGradient>
<linearGradient id="paint2_linear_736_5860" x1="38.3048" y1="33.794" x2="9.16048" y2="64.8352" gradientUnits="userSpaceOnUse">
<stop stop-color="#FF3A44"/>
<stop offset="1" stop-color="#C31162"/>
</linearGradient>
<linearGradient id="paint3_linear_736_5860" x1="14.3472" y1="5.41076" x2="27.3615" y2="19.2719" gradientUnits="userSpaceOnUse">
<stop stop-color="#32A071"/>
<stop offset="0.0685" stop-color="#2DA771"/>
<stop offset="0.4762" stop-color="#15CF74"/>
<stop offset="0.8009" stop-color="#06E775"/>
<stop offset="1" stop-color="#00F076"/>
</linearGradient>
</defs>
</svg>
