<svg width="103" height="32" viewBox="0 0 103 32" fill="none" xmlns="http://www.w3.org/2000/svg">
<path d="M101.863 21.6631C102.119 21.7684 102.24 22.0607 102.135 22.316L100.419 26.476C100.314 26.7313 100.022 26.8528 99.7662 26.7475C99.511 26.6422 99.3894 26.3499 99.4947 26.0947L101.02 22.3969L97.3221 20.8716C97.0669 20.7663 96.9453 20.474 97.0506 20.2187C97.1559 19.9635 97.4482 19.8419 97.7035 19.9472L101.863 21.6631ZM1.79172 0.0960957C8.02783 8.87923 19.3559 19.9249 35.9092 25.9489C52.4496 31.9681 74.2511 32.9898 101.481 21.6637L101.865 22.587C74.4236 34.0011 52.3626 33.0006 35.5672 26.8886C18.7848 20.7813 7.30386 9.58691 0.976343 0.675022L1.79172 0.0960957Z" fill="white"/>
</svg>
